# xmcd
#
# Track frame offsets: 
#        182
#        14375
#        28877
#        43157
#        56995
#        70110
#        83535
#        97235
#        110967
#        126385
#        140417
#        154392
#        167352
#        180485
#        193925
#        207772
#        221460
#        235965
#        250070
#        264367
#        277127
#        290357
#        302345
#        315320
#
# Disc length: 4380 seconds
#
# Revision: 1
# Processed by: cddbd v1.5.2PL0 Copyright (c) Steve Scherf et al.
# Submitted via: ExactAudioCopyFreeDBPlugin 1.0
#
DISCID=65111a18
DTITLE=Charley Patton - King Of The Delta
DYEAR=1996
DGENRE=Blues
TTITLE0=Shake It And Break It (But Don't Let It Fall Mama)
TTITLE1=A Spoonful Blues
TTITLE2=Mississippi Boweavil Blues
TTITLE3=Screamin' And Hollerin' Blues
TTITLE4=Down The Dirt Road Blues
TTITLE5=Pony Blues
TTITLE6=Banty Rooster Blues
TTITLE7=Pea Vine Blues
TTITLE8=It Won't Be Long
TTITLE9=Tom Rushen Blues
TTITLE10=Prayer Of Death Part 1
TTITLE11=Prayer Of Death Part 2
TTITLE12=Mean Black Cat Blues
TTITLE13=Jim Lee Blues Part 1
TTITLE14=High Water Everyhwere Part 1
TTITLE15=High Water Everywhere Part 2
TTITLE16=Moon Going Down
TTITLE17=Jersey Bull Blues
TTITLE18=High Sheriff Blues
TTITLE19=Stone Pony Blues
TTITLE20=Love My Stuff
TTITLE21=Revenue Man Blues
TTITLE22=Mind Reader Blues (Bertha Lee)
TTITLE23=34 Blues
EXTD=
EXTT0=
EXTT1=
EXTT2=
EXTT3=
EXTT4=
EXTT5=
EXTT6=
EXTT7=
EXTT8=
EXTT9=
EXTT10=
EXTT11=
EXTT12=
EXTT13=
EXTT14=
EXTT15=
EXTT16=
EXTT17=
EXTT18=
EXTT19=
EXTT20=
EXTT21=
EXTT22=
EXTT23=
PLAYORDER=
